<?xml version="1.0" encoding="utf-8" ?><svg xmlns="http://www.w3.org/2000/svg" xmlns:xlink="http://www.w3.org/1999/xlink" width="2569" height="1712" viewBox="0 0 2569 1712"><path fill="#1E1D1C" transform="scale(1.67232 1.67232)" d="M187.301 111.571C193.031 110.415 198.891 108.729 204.161 112.209C204.307 112.305 204.451 112.406 204.596 112.505C205.896 113.637 206.609 114.032 208.276 114.466L211.16 116.22L218.812 120.622C223.556 124.822 229.762 127.779 234.96 131.48C245.177 138.754 254.162 147.082 262.801 156.142C262.386 160.42 262.364 165.221 261.435 169.389C259.422 203.303 253.196 266.886 276.979 293.685C277.968 294.801 278.993 295.861 280.113 296.847L280.785 297.106C283.567 299.436 286.274 301.585 289.392 303.449C291.784 305.11 294.084 306.825 296.811 307.9C338.538 330.998 375.814 361.301 413.704 390.003C437.039 407.814 461.156 424.576 485.984 440.238C530.434 467.885 577.725 486.987 628.006 501.119C784.512 545.106 924.372 523.326 1077.73 479.354C1104.88 471.569 1131.41 460.986 1159.05 454.957C1189.79 448.251 1230.63 445.958 1262.52 443.376C1282.31 441.773 1316.29 438.201 1335.11 440.171C1339.39 440.62 1343.01 442.122 1346.76 444.188C1363.94 453.652 1381.78 471.308 1387.04 490.463C1390.65 503.615 1388.56 517.295 1381.72 529.046C1380.18 531.682 1378.56 534.273 1376.98 536.883C1369.43 549.277 1362.31 562.439 1355.55 575.286C1354.15 577.475 1352.7 579.642 1351.47 581.93C1350.63 583.171 1349.76 584.358 1349.21 585.76L1347.79 587.802C1346.78 589.345 1345.62 590.897 1344.75 592.516C1317.15 633.23 1284.1 668.326 1244.26 697.317C1232.88 705.602 1220.13 712.13 1208.87 720.511C1203.8 723.215 1198.8 726.038 1193.86 728.977L1193 729.633C1188.18 731.98 1181.06 734.762 1177.18 738.361C1162.2 743.525 1146.2 757.023 1131 760.13L1130.37 761.536C1119.22 763.876 1106.28 771.85 1095 775.836L1087.72 778.622L1082.4 780.647L1081.7 780.88L1067.82 785.793C1090.07 786.371 1112.23 787.043 1134.43 788.738C1146.18 789.635 1158.07 791.724 1169.8 792.194L1170.4 792.073C1200.99 796.871 1231.05 800.249 1261.18 807.885C1270.91 810.349 1281.13 812.786 1290 817.633C1282.8 819.035 1275.36 822.386 1268.24 824.403C1251.34 829.189 1233.93 831.752 1216.61 834.506C1170.53 841.835 1124 845.787 1077.62 850.67C1031.32 855.739 984.966 860.256 938.559 864.22C871.463 870.151 803.006 874.969 735.677 871.149C663.872 867.075 590.972 853.193 521.482 834.864C484.306 825.059 433.336 811.313 400.145 792.79C413.383 786.551 449.762 783.875 465.101 783.89C453.558 778.347 441.998 773.266 430.751 767.104L408.608 754.819L403.558 751.777L382.614 739.134L380.519 737.645C378.338 736.03 376.037 734.684 373.699 733.315C371.531 731.601 369.292 730.231 366.91 728.843L356.45 721.722L354.387 720.099L343.515 712.371L341.901 710.701C339.7 709.535 337.49 707.727 335.415 706.313L331.757 703.55L326.578 699.636L326.037 699.459C320.412 692.963 310.895 686.918 303.986 681.662L303.482 681.356C300.293 678.018 296.433 674.933 292.734 672.186C289.477 668.821 285.776 665.808 282.261 662.713L276.909 658.176L275.754 657.171L248.33 629.738L243.257 623.94L240.583 621.051L235.937 615.707C234.159 612.857 231.004 609.198 228.319 607.233L227.845 605.816C223.951 601.618 220.546 596.89 217.028 592.375C191.671 555.689 179.142 532.09 167.326 488.842C164.001 476.882 162.157 464.492 160.188 452.25C155.492 416.934 158.573 382.949 170.46 349.25C175.408 335.224 182.037 321.878 183.845 306.939C186.443 285.466 181.619 261.799 177.782 240.719C176.611 235.425 174.804 230.288 173.127 225.139L171.567 221.058C170.531 218.442 169.001 215.974 167.65 213.507C166.069 211.438 164.199 209.657 162.358 207.822L161.31 206.742C158.336 203.089 156.534 199.429 154.773 195.084C154.108 190.85 156.845 183.887 155.048 180.826C149.057 167.783 150.321 151.635 153.429 137.972C153.46 137.82 153.493 137.668 153.522 137.516C154.446 132.619 156.313 128.861 158.299 124.364L164.428 119.684C166.519 118.498 168.655 117.495 170.84 116.502L174.985 114.504C179.126 113.824 183.233 112.603 187.301 111.571Z"/><path fill="#44270E" transform="scale(1.67232 1.67232)" d="M187.301 111.571C193.031 110.415 198.891 108.729 204.161 112.209C204.307 112.305 204.451 112.406 204.596 112.505C205.896 113.637 206.609 114.032 208.276 114.466L211.16 116.22L218.812 120.622C223.556 124.822 229.762 127.779 234.96 131.48C245.177 138.754 254.162 147.082 262.801 156.142C262.386 160.42 262.364 165.221 261.435 169.389L260.584 167.992C259.269 168.013 258.902 168.092 257.847 168.863C253.026 172.386 239.399 170.369 232.857 174.482L227.693 177.672L226.408 176.214C226.303 175.219 226.451 174.439 226.586 173.447C225.179 170.634 224.358 168.871 224.6 165.645C225.077 167.034 225.513 168.025 226.347 169.232L227.302 168.951C228.187 166.038 227.96 163.397 227.769 160.403C226.17 158.716 218.11 136.069 216.39 131.938C216.392 131.741 216.417 131.543 216.395 131.347C216.143 129.055 210.275 124.975 208.384 123.385L207.373 123.032C207.344 127.986 214.617 145.984 215.994 153.716C217.933 160.211 219.173 165.896 217.456 172.591C219.321 173.507 219.268 174.058 220.093 175.903L220.455 175.417C220.951 178.464 211.972 194.958 209.535 198.404C208.216 200.27 206.817 202.015 204.485 202.476C199.049 199.67 187.681 176.927 184.937 177.778L184.066 179.026L182.59 177.979L184.045 175.858C183.775 174.954 183.444 174.214 182.992 173.387C183.013 172.862 183.023 172.337 183.019 171.813C182.967 167.774 181.239 166.162 178.557 163.482C174.208 159.557 168.009 149.374 166.272 143.704C166.207 143.491 166.152 143.275 166.093 143.06L164.538 143.633L163.967 143.021C164.34 141.329 165.447 140.712 166.724 139.654C166.692 139.397 166.653 139.141 166.627 138.883C166.192 134.473 167.646 124.421 170.696 121.135C172.34 119.363 174.153 118.983 176.482 118.887C176.691 118.878 176.9 118.877 177.109 118.871C178.46 117.818 179.193 117.121 179.918 115.556L179.644 115.161C176.967 114.804 174.185 116.143 171.46 116.439L170.84 116.502L174.985 114.504C179.126 113.824 183.233 112.603 187.301 111.571Z"/><path fill="#7C481A" transform="scale(1.67232 1.67232)" d="M198.305 123.731C199.016 123.487 198.592 123.582 199.66 123.578C200.689 123.574 201.694 123.529 202.722 123.459C204.198 121.297 203.631 118.641 203.619 116.052C207.451 118.157 211.651 121.038 215.939 121.977C226.79 127.862 236.572 134.904 246.001 142.853C245.971 143.075 245.935 143.296 245.912 143.519C245.595 146.61 246.555 148.002 247.898 150.67C248.237 151.345 248.245 151.923 248.194 152.658C245.695 153.061 244.602 152.043 242.558 150.718C240.523 147.875 238.421 145.079 236.256 142.334C234.957 143.426 234.245 144.481 232.367 144.17C231.934 144.099 231.435 143.791 231.051 143.58L228.84 141.139L228.311 141.557C230.299 146.828 234.709 154.459 233.489 160.082L231.703 162.109L230.773 163.222C230.09 162.241 229.587 161.542 228.566 160.893C228.303 160.726 228.035 160.566 227.769 160.403C226.17 158.716 218.11 136.069 216.39 131.938C216.392 131.741 216.417 131.543 216.395 131.347C216.143 129.055 210.275 124.975 208.384 123.385L207.373 123.032C207.344 127.986 214.617 145.984 215.994 153.716C217.933 160.211 219.173 165.896 217.456 172.591L216.06 173.375C215.51 173.12 215.299 173.075 214.834 172.565C211.814 169.248 208.105 160.057 208.086 155.73C208.077 153.585 207.901 151.654 209.44 150.084L210.843 150.596L211.428 149.775C211.378 147.541 211.253 144.955 209.668 143.233C207.689 141.084 207.24 140.06 206.685 137.183L206.513 136.257L205.89 136.146C205.283 146.096 203.428 156.552 204.77 166.466C202.995 162.48 200.633 158.873 198.73 154.967C193.745 144.73 196.769 134.468 198.305 123.731Z"/><path fill="#44270E" transform="scale(1.67232 1.67232)" d="M216.39 131.938C224.333 137.343 228.242 153.386 231.703 162.109L230.773 163.222C230.09 162.241 229.587 161.542 228.566 160.893C228.303 160.726 228.035 160.566 227.769 160.403C226.17 158.716 218.11 136.069 216.39 131.938Z"/><path fill="#532E12" transform="scale(1.67232 1.67232)" d="M177.855 121.777C178.778 119.806 179.275 119.368 181.109 118.201C183.322 116.794 185.646 115.382 188.339 115.99L187.683 117.385C189.336 120.607 192.846 126.283 191.784 129.908C191.587 130.582 191.4 131.244 191.185 131.913L189.96 130.429C188.619 130.898 188.201 130.887 187.621 132.305C186.947 133.956 186.934 136.686 186.687 138.477C185.363 148.073 186.297 165.795 182.992 173.387C183.013 172.862 183.023 172.337 183.019 171.813C182.967 167.774 181.239 166.162 178.557 163.482C174.208 159.557 168.009 149.374 166.272 143.704C166.207 143.491 166.152 143.275 166.093 143.06L164.538 143.633L163.967 143.021C164.34 141.329 165.447 140.712 166.724 139.654C167.66 141.448 167.348 143.991 168.343 146.06L169.49 146.148C170.704 143.487 171.346 133.581 173.265 128.067L173.111 128.712C174.477 126.77 175.237 124.385 176.122 122.192L177.855 121.777Z"/><path fill="#261506" transform="scale(1.67232 1.67232)" d="M166.724 139.654C167.66 141.448 167.348 143.991 168.343 146.06L169.49 146.148C170.704 143.487 171.346 133.581 173.265 128.067L173.111 128.712C174.477 126.77 175.237 124.385 176.122 122.192L177.855 121.777C178.056 129.537 172.178 148.508 173.457 153.472C174.569 157.787 178.989 157.691 178.557 163.482C174.208 159.557 168.009 149.374 166.272 143.704C166.207 143.491 166.152 143.275 166.093 143.06L164.538 143.633L163.967 143.021C164.34 141.329 165.447 140.712 166.724 139.654Z"/><path fill="#261506" transform="scale(1.67232 1.67232)" d="M181.667 134.095C182.48 134.67 182.995 134.885 183.25 135.923C183.797 138.149 182.247 157.969 181.092 159.938L180.735 159.253C180.455 158.724 180.389 158.66 180.147 158.066C178.362 153.686 178.843 143.783 180.769 139.543C181.657 137.59 181.676 136.221 181.667 134.095Z"/><path fill="#44270E" transform="scale(1.67232 1.67232)" d="M186.795 118.991C186.887 119.179 187.005 119.357 187.072 119.557C188.375 123.427 184.789 130.683 183.227 134.244L183.101 133.064C182.827 130.376 182.159 127.746 184.019 125.515C185.879 123.284 186.251 121.759 186.795 118.991Z"/><path fill="#693916" transform="scale(1.67232 1.67232)" d="M188.339 115.99C190.935 114.97 193.965 112.86 196.753 113.077C197.807 120.015 193.513 140.18 191.278 147.201C191.064 149.32 191.218 151.019 189.896 152.756C188.401 152.018 188.109 151.432 187.347 150.028C188.117 143.894 189.95 137.965 191.185 131.913C191.4 131.244 191.587 130.582 191.784 129.908C192.846 126.283 189.336 120.607 187.683 117.385L188.339 115.99Z"/><path fill="#261506" transform="scale(1.67232 1.67232)" d="M231.703 162.109L233.489 160.082C234.709 154.459 230.299 146.828 228.311 141.557L228.84 141.139L231.051 143.58C232.447 146.469 233.974 149.395 234.989 152.444C235.899 155.178 236.201 159.934 237.555 162.244C239.197 165.046 242.221 162.812 241.527 167.78C239.289 169.358 237.114 171.045 234.598 172.154L234.172 169.206C232.963 168.744 232.951 168.662 231.75 169.203C229.147 170.376 228.452 172.46 227.424 174.938C227.045 175.852 227.236 175.516 226.408 176.214C226.303 175.219 226.451 174.439 226.586 173.447C225.179 170.634 224.358 168.871 224.6 165.645C225.077 167.034 225.513 168.025 226.347 169.232L227.302 168.951C228.187 166.038 227.96 163.397 227.769 160.403C228.035 160.566 228.303 160.726 228.566 160.893C229.587 161.542 230.09 162.241 230.773 163.222L231.703 162.109Z"/><path fill="#693916" transform="scale(1.67232 1.67232)" d="M246.001 142.853C252.112 147.493 255.9 152.102 257.019 159.972C257.407 162.701 257.395 164.805 255.758 167.076C254.195 168.119 252.434 168.808 250.511 168.451C249.581 168.279 248.652 167.791 247.816 167.363C249.278 166.023 249.933 164.971 250.727 163.162C250.883 157.956 245.854 155.142 242.972 151.284L242.558 150.718C244.602 152.043 245.695 153.061 248.194 152.658C248.245 151.923 248.237 151.345 247.898 150.67C246.555 148.002 245.595 146.61 245.912 143.519C245.935 143.296 245.971 143.075 246.001 142.853Z"/><path fill="#261506" transform="scale(1.67232 1.67232)" d="M236.256 142.334C238.421 145.079 240.523 147.875 242.558 150.718L242.972 151.284C245.854 155.142 250.883 157.956 250.727 163.162C249.933 164.971 249.278 166.023 247.816 167.363L246.691 167.268L246.938 167.99L247.213 167.697L245.115 169.057C243.388 166.068 245.58 162.343 244.751 158.956C243.454 153.657 238.306 147.843 236.256 142.334Z"/><path fill="#693916" transform="scale(1.67232 1.67232)" d="M199.448 112.276C205.024 115.251 211.002 117.995 215.939 121.977C211.651 121.038 207.451 118.157 203.619 116.052C203.631 118.641 204.198 121.297 202.722 123.459C201.694 123.529 200.689 123.574 199.66 123.578C198.592 123.582 199.016 123.487 198.305 123.731C198.118 120.135 199.071 115.888 199.448 112.276Z"/><path fill="#532E12" transform="scale(1.67232 1.67232)" d="M191.278 147.201C191.82 150.105 192.978 153.71 191.158 156.317C190.583 157.142 189.954 157.885 189.267 158.618L187.819 158.636C186.434 156.09 186.863 152.867 187.347 150.028C188.109 151.432 188.401 152.018 189.896 152.756C191.218 151.019 191.064 149.32 191.278 147.201Z"/><path fill="#7C481A" transform="scale(1.67232 1.67232)" d="M194.498 154.46C194.677 154.616 194.901 154.73 195.035 154.926C197.081 157.923 205.76 178.629 205.628 181.704L204.464 181.374C204.204 177.991 204.087 176.667 201.596 174.292L201.633 175.036C197.24 168.209 195.089 162.508 194.498 154.46Z"/><defs><linearGradient id="gradient_0" gradientUnits="userSpaceOnUse" x1="223.724" y1="147.73399" x2="216.55394" y2="149.05667"><stop offset="0" stop-color="#915422"/><stop offset="1" stop-color="#714417"/></linearGradient></defs><path fill="url(#gradient_0)" transform="scale(1.67232 1.67232)" d="M208.384 123.385C210.275 124.975 216.143 129.055 216.395 131.347C216.417 131.543 216.392 131.741 216.39 131.938C218.11 136.069 226.17 158.716 227.769 160.403C227.96 163.397 228.187 166.038 227.302 168.951L226.347 169.232C225.513 168.025 225.077 167.034 224.6 165.645C221.269 158.233 220.029 149.123 217.243 141.353C215.009 135.122 210.85 129.653 208.384 123.385Z"/><defs><linearGradient id="gradient_1" gradientUnits="userSpaceOnUse" x1="719.96326" y1="827.09857" x2="774.56525" y2="224.26183"><stop offset="0" stop-color="#EDC019"/><stop offset="1" stop-color="#FFEC1F"/></linearGradient></defs><path fill="url(#gradient_1)" transform="scale(1.67232 1.67232)" d="M248.25 176.133L251.649 174.775C253.582 175.417 254.533 175.333 255.59 177.129C256.113 187.614 254.585 198.38 253.831 208.857C253.073 219.402 253.05 229.676 253.515 240.224C255.38 254.347 257.634 268.708 262.383 282.191C264.258 287.317 267.19 291.616 270.068 296.207C275.723 303.024 281.848 304.604 287.419 309.946C300.316 317.276 313.258 324.552 325.59 332.815C379.361 368.839 427.357 412.473 482.132 447.262C525.917 475.071 574.112 494.242 623.924 508.139C783.055 552.536 919.276 531.214 1075.14 488.497C1103.05 480.85 1130.14 468.833 1158.34 462.485C1175.25 458.677 1331.76 442.308 1340.06 447.88C1341.69 448.978 1342.98 452.396 1343.79 454.2C1344.93 457.959 1346.15 461.765 1346.41 465.708C1346.74 470.865 1344.77 479.685 1346.34 483.803C1347.08 488.702 1348.78 493.45 1352.33 497.085L1353.64 500.147C1355.39 501.967 1357.21 503.142 1357.61 505.685C1356.82 506.431 1356.07 507.171 1355.15 507.762L1356 508.55L1358.24 506.869C1360.37 507.462 1361.6 508.318 1362.7 510.285C1363.14 511.079 1363.51 511.928 1363.88 512.757L1363.2 514.442L1364.59 515.222C1365.79 516.483 1366.67 517.069 1366.35 519.01C1366.31 519.239 1366.22 519.456 1366.16 519.679L1367.76 521.82C1368.67 522.24 1368.67 522.109 1369.24 523.041L1370.61 525.826C1370.83 530.214 1367.16 534.227 1366.11 538.43C1366.23 538.294 1366.34 538.159 1366.46 538.021C1368.34 535.704 1369.64 533.07 1371.03 530.44C1370.41 538.335 1363.02 549.134 1359.01 555.933C1336.99 593.312 1307.83 635.279 1274.77 663.552C1272.42 665.561 1269.37 668.646 1266.58 669.914C1259.74 676.272 1251.76 681.913 1244.23 687.458C1188.61 728.432 1118.6 759.175 1053.54 781.731C876.591 843.081 625.052 850.273 454.001 767.068C351.745 717.327 218.485 618.585 180.467 507.793C161.292 451.912 158.415 390.715 184.923 336.641C184.704 336.287 184.576 336.123 184.456 335.678C183.838 333.383 184.026 332.354 184.986 330.336C185.735 328.074 186.424 325.793 187.053 323.495C189.491 314.943 190.789 306.107 190.913 297.215C191.317 277.68 185.13 225.805 175.876 209.511C175.064 207.92 174.934 207.284 175.108 205.506C176.579 204.299 176.5 204.377 178.404 204.538L178.843 203.859C179.963 202.111 181.84 200.778 183.834 200.135C185.708 199.531 187.316 200.111 188.919 201.093C191.756 202.831 192.91 206.875 193.88 209.886L196.339 207.945C196.97 208.2 197.728 208.307 198.093 208.895C199.416 209.595 200.65 210.519 201.944 211.281C203.795 212.37 205.618 213.201 207.755 212.397C213.671 210.17 214.007 202.765 215.833 197.629C218.391 190.434 225.176 183.339 232.139 180.214C233.983 179.386 235.546 179.009 237.463 179.719L238.277 182.81L238.838 183.018C238.983 188.246 238.842 193.668 239.378 198.855C240.086 193.86 238.485 180.9 241.368 177.19C242.84 179.929 242.574 182.725 242.524 185.742C243.235 183.364 243.375 180.683 243.695 178.22C244.53 179.842 244.439 182.244 244.59 184.051C244.883 182.037 244.503 179.432 245.482 177.618C246.056 176.555 247.147 176.507 248.25 176.133Z"/><path fill="#FEF491" transform="scale(1.67232 1.67232)" d="M287.419 309.946C300.316 317.276 313.258 324.552 325.59 332.815C379.361 368.839 427.357 412.473 482.132 447.262C525.917 475.071 574.112 494.242 623.924 508.139C783.055 552.536 919.276 531.214 1075.14 488.497C1103.05 480.85 1130.14 468.833 1158.34 462.485C1175.25 458.677 1331.76 442.308 1340.06 447.88C1341.69 448.978 1342.98 452.396 1343.79 454.2C1306.87 453.587 1269.29 458.076 1232.54 461.513C1211.13 463.515 1189.01 464.344 1167.87 468.382C1159.1 470.058 1150 472.609 1142.04 476.737C1131.9 479.811 1115.91 488.296 1106.7 489.618C1102.67 489.114 1045.45 504.708 1035.5 507.305C979.861 521.833 924.546 533.924 867.261 539.926C720.615 554.032 573.569 517.398 450.67 436.14C414.62 412.227 381.777 382.59 347.968 355.643C337.571 347.355 326.814 338.875 315.691 331.576C307.325 326.085 297.04 321.244 289.564 314.674C287.982 313.284 287.624 311.99 287.419 309.946Z"/><path fill="#D59612" transform="scale(1.67232 1.67232)" d="M1150.43 654.623C1161.25 646.594 1173.99 641.178 1185.5 634.21C1204.64 622.635 1222.98 609.657 1241.31 596.861L1241.89 598.05C1236.44 602.81 1233.76 613.609 1230.95 620.215L1229.64 621.174L1230.2 623.135C1227.93 625.08 1224.94 627.063 1224 630.011C1237.16 620.772 1249.51 609.349 1261.92 599.07L1262.55 600.376C1246.63 613.113 1231.96 627.318 1216.12 640.143C1214.26 641.647 1211.38 644.818 1209.39 645.811C1206.58 648.369 1202.56 652.223 1202.34 656.262C1202.33 656.514 1202.33 656.766 1202.33 657.018C1192.89 663.891 1182.71 669.817 1172.88 676.111C1154.15 688.1 1135.68 699.749 1116.44 710.949L1113.5 711.601C1116.24 708.796 1120.43 706.974 1123.84 705.065C1121.53 703.158 1115.22 703.671 1112.28 704.601C1108.26 705.875 1105.03 708.993 1101.22 710.809C1093.64 714.41 1045.54 735.599 1040.45 735.786C1039.47 735.822 1039.52 735.606 1038.85 734.997C1038.98 734.537 1039.01 734.315 1039.23 733.915C1040.01 732.45 1041.64 731.203 1043.21 730.726C1052.18 727.99 1087.75 712.883 1093.89 707.343C1097.05 704.483 1097 699.071 1100.46 696.167L1099.41 695.233C1099.22 695.303 1099.04 695.382 1098.85 695.442C1093.25 697.217 1073.97 708.379 1070.18 707.718C1069.35 706.11 1069.21 706.111 1069.63 704.374C1077.06 701.826 1107.52 685.921 1111.41 680.419C1111.99 679.596 1112.58 678.806 1113.22 678.026C1114.86 676.02 1117.99 672.411 1120.62 672.147C1120.05 673.171 1119.63 673.978 1118.75 674.78L1119.33 676.158L1110.63 685.408C1118.36 681.08 1126.02 677.67 1133.97 673.816C1140 670.89 1142.05 660.447 1147.38 655.716L1147.96 655.204L1150.43 654.623Z"/><path fill="#0E0903" transform="scale(1.67232 1.67232)" d="M1261.92 599.07L1262.55 600.376C1246.63 613.113 1231.96 627.318 1216.12 640.143C1214.26 641.647 1211.38 644.818 1209.39 645.811C1208.87 645.778 1208.34 645.622 1207.82 645.712C1206.91 645.868 1182.34 662.667 1179.21 664.674C1161.73 675.882 1143.44 685.943 1125.23 695.92C1105.74 706.596 1084.77 718.607 1063.52 725.349L1062.84 724.154C1073.91 719.311 1084.97 714.418 1095.56 708.563C1105.85 704.623 1116.78 698.576 1125.89 692.361L1170.04 666.76L1171.17 664.227C1173.87 663.088 1176.48 660.762 1178.85 659.018L1180.66 659.961C1190.91 654.615 1210.14 641.853 1216.63 632.724C1221.06 626.502 1223.64 619.313 1228.39 613.14C1225.3 621.191 1220.89 629.131 1216.64 636.64C1219.17 634.494 1221.67 632.363 1224 630.011C1237.16 620.772 1249.51 609.349 1261.92 599.07Z"/><path fill="#C98914" transform="scale(1.67232 1.67232)" d="M1178.85 659.018L1180.66 659.961C1177.22 662.41 1173.84 664.881 1170.04 666.76L1171.17 664.227C1173.87 663.088 1176.48 660.762 1178.85 659.018Z"/><path fill="#0E0903" transform="scale(1.67232 1.67232)" d="M1150.43 654.623C1147.72 659.246 1145.45 664.014 1141.6 667.808C1140.97 668.431 1140.35 669.065 1139.71 669.68C1146.1 669.118 1164.11 652.109 1171.71 650.498L1172.09 650.823C1165.44 655.712 1158.82 660.684 1151.9 665.186C1146.69 668.579 1140.86 671.526 1136.05 675.448C1134.18 676.969 1132.71 678.68 1131.59 680.829L1131.15 679.189L1131.33 677.47C1131.14 677.468 1130.94 677.445 1130.75 677.465C1126.68 677.888 1109.55 688.003 1107.25 691.11L1107.78 690.517C1097.48 693.859 1087.8 698.732 1077.87 703.01L1077.05 702.671L1075.99 703.58L1077.19 703.222C1077.41 701.687 1082.7 699.589 1084.29 698.788C1099.81 690.948 1106.18 687.385 1118.75 674.78L1119.33 676.158L1110.63 685.408C1118.36 681.08 1126.02 677.67 1133.97 673.816C1140 670.89 1142.05 660.447 1147.38 655.716L1147.96 655.204L1150.43 654.623Z"/><path fill="#261506" transform="scale(1.67232 1.67232)" d="M1171.17 664.227C1173.93 660.788 1177.59 657.861 1180.58 654.555C1185.77 648.809 1192.68 637.624 1199 633.716C1194.18 642.277 1186.02 652.329 1178.85 659.018C1176.48 660.762 1173.87 663.088 1171.17 664.227Z"/><path fill="#584007" transform="scale(1.67232 1.67232)" d="M1062.84 724.154L1063.52 725.349C1058.15 728.066 1052.43 729.682 1046.88 731.978C1051.78 728.609 1057.39 726.484 1062.84 724.154Z"/><path fill="#532E12" transform="scale(1.67232 1.67232)" d="M1126.91 686.135C1127.08 684.014 1129.9 680.96 1131.15 679.189L1131.59 680.829C1130.38 683.188 1129.06 684.594 1126.91 686.135Z"/><path fill="#7C481A" transform="scale(1.67232 1.67232)" d="M1164.31 661.618C1164.34 661.806 1164.4 661.992 1164.4 662.183C1164.33 665.868 1157.14 671.866 1154.56 674.411C1154.83 671.605 1162.2 664.24 1164.31 661.618Z"/><path fill="#D59612" transform="scale(1.67232 1.67232)" d="M1346.34 483.803C1347.08 488.702 1348.78 493.45 1352.33 497.085L1353.64 500.147C1355.39 501.967 1357.21 503.142 1357.61 505.685C1356.82 506.431 1356.07 507.171 1355.15 507.762L1356 508.55L1358.24 506.869C1360.37 507.462 1361.6 508.318 1362.7 510.285C1363.14 511.079 1363.51 511.928 1363.88 512.757L1363.2 514.442L1364.59 515.222C1365.79 516.483 1366.67 517.069 1366.35 519.01C1366.31 519.239 1366.22 519.456 1366.16 519.679L1367.76 521.82C1368.67 522.24 1368.67 522.109 1369.24 523.041L1370.61 525.826C1361.83 537.778 1354.16 550.418 1344.88 562.044L1343.63 561.538C1342.4 563.26 1341.11 564.867 1340.38 566.877C1338.34 568.81 1337.63 570.345 1337.1 573.085L1338.06 572.266L1337.85 573.398C1336.95 575.291 1336.28 576.404 1334.51 577.574L1333.6 577.114C1333.7 575.014 1333.75 573.021 1334.34 570.987C1333.79 571.652 1334.03 571.311 1333.6 572.002C1332.5 571.775 1332.27 571.636 1331.27 572.303C1330.35 572.923 1329.65 573.987 1328.98 574.864L1327.99 573.088L1326.28 572.948C1326.53 570.639 1330.06 567.199 1331.34 565.128C1332.61 563.082 1330.83 558.474 1330.32 556.204L1331.67 553.338L1331.24 552.726L1326.86 555.822C1328.34 553.705 1329.89 551.725 1331.54 549.75C1331.74 548.176 1332.08 546.651 1332.42 545.102C1331.25 545.739 1330.25 547.006 1329.48 548.064C1328.48 549.449 1327.69 550.578 1326.3 551.614C1325.15 552.47 1325.16 552.369 1323.74 552.16L1323.42 550.653C1326.77 545.545 1330.57 540.942 1334.07 535.967C1332.81 534.866 1332.77 534.751 1332.37 533.121L1330.72 533.795C1329.74 536.287 1326.8 540.412 1324.26 541.438C1324.05 541.521 1323.84 541.589 1323.63 541.664C1323.17 541.028 1322.73 540.846 1322.97 540.004C1323.8 537.027 1327.22 535.758 1327.65 532.401C1326.81 531.287 1325.5 531.036 1324.11 530.896C1322.19 530.702 1320.02 532.213 1318.56 533.338C1304.31 544.327 1291.34 557.395 1277.7 569.15C1268.38 577.183 1257.89 584.338 1249.02 592.793C1242.14 599.343 1236.46 609.588 1234.83 619.003L1235.74 619.054C1242.75 612.555 1282.25 578.219 1288.56 575.819L1289.62 576.861C1288.48 579.028 1287.03 578.769 1285.65 580.485C1281.81 585.246 1277.31 588.506 1272.86 592.694C1258.34 606.336 1242.97 619.136 1227.88 632.221C1223.8 635.761 1218.89 638.887 1215.18 642.782C1213.86 644.163 1212.1 646.117 1212.4 648.165C1213.42 647.439 1214.44 646.731 1215.44 645.976C1216.43 645.221 1217.32 644.844 1218.47 644.371C1226.35 641.131 1248.12 621.364 1253.41 621.092C1250.13 627.505 1211.49 649.645 1202.33 657.018C1202.33 656.766 1202.33 656.514 1202.34 656.262C1202.56 652.223 1206.58 648.369 1209.39 645.811C1211.38 644.818 1214.26 641.647 1216.12 640.143C1231.96 627.318 1246.63 613.113 1262.55 600.376L1261.92 599.07C1249.51 609.349 1237.16 620.772 1224 630.011C1224.94 627.063 1227.93 625.08 1230.2 623.135L1229.64 621.174L1230.95 620.215C1233.76 613.609 1236.44 602.81 1241.89 598.05L1241.31 596.861C1251.51 588.188 1262.24 580.146 1272.51 571.563C1285.25 560.911 1297.22 549.338 1309.88 538.587C1316.77 532.738 1348.33 508.798 1351.59 504.186C1351.81 503.871 1351.75 503.432 1351.83 503.054L1346.28 506.07C1344.39 507.605 1342.52 509.215 1340.55 510.654C1340.52 510.575 1340.5 510.49 1340.45 510.418C1340.07 509.832 1339.6 509.297 1339.27 508.676C1338.18 506.634 1339.2 505.037 1339.87 503L1338.54 502.205C1338.9 498.545 1344.36 493.569 1345.86 489.56C1345.89 487.66 1346.18 485.7 1346.34 483.803Z"/><path fill="#0E0903" transform="scale(1.67232 1.67232)" d="M1366.16 519.679L1367.76 521.82C1361.65 530.171 1336.83 564.936 1331.2 569.191C1341.97 552.016 1354.3 536.079 1366.16 519.679Z"/><path fill="#0E0903" transform="scale(1.67232 1.67232)" d="M1369.24 523.041L1370.61 525.826C1361.83 537.778 1354.16 550.418 1344.88 562.044L1343.63 561.538C1351.59 548.415 1362.27 536.717 1369.24 523.041Z"/><path fill="#44270E" transform="scale(1.67232 1.67232)" d="M1363.2 514.442L1364.59 515.222C1360.92 518.87 1357.79 523.457 1354.52 527.481C1347.22 536.438 1339.86 545.283 1331.38 553.143C1335.02 547.165 1340.18 542.093 1344.67 536.729C1350.87 529.311 1356.84 521.741 1363.2 514.442Z"/><path fill="#0E0903" transform="scale(1.67232 1.67232)" d="M1355.15 507.762L1356 508.55C1348.65 516.314 1340.65 524.8 1331.92 531.003C1331.94 530.814 1331.95 530.618 1332 530.435C1333.56 525.227 1350.37 511.028 1355.15 507.762Z"/><path fill="#7C481A" transform="scale(1.67232 1.67232)" d="M1230.95 620.215C1233.76 613.609 1236.44 602.81 1241.89 598.05C1240.44 601.597 1233.18 619.276 1231.67 620.92L1230.95 620.215Z"/><path fill="#7C481A" transform="scale(1.67232 1.67232)" d="M1261.92 599.07C1266.38 594.859 1271.33 589.939 1276.72 586.962C1273.07 591.79 1267.33 596.652 1262.55 600.376L1261.92 599.07Z"/><path fill="#261506" transform="scale(1.67232 1.67232)" d="M1356.46 514.574L1357.08 515.144C1354.26 521.671 1337.93 536.376 1332.08 542.636L1331.53 542.196C1338.64 532.23 1347.32 522.701 1356.46 514.574Z"/><path fill="#0E0903" transform="scale(1.67232 1.67232)" d="M1351.83 503.054C1351.75 503.432 1351.81 503.871 1351.59 504.186C1348.33 508.798 1316.77 532.738 1309.88 538.587C1297.22 549.338 1285.25 560.911 1272.51 571.563C1262.24 580.146 1251.51 588.188 1241.31 596.861C1222.98 609.657 1204.64 622.635 1185.5 634.21C1173.99 641.178 1161.25 646.594 1150.43 654.623L1147.96 655.204C1140.68 656.143 1131.45 662.914 1124.65 666.021C1108.91 673.217 1092.98 680.492 1076.86 686.775C1019.53 709.119 958.137 725.697 896.998 732.803L896.998 730.431C938.664 725.708 980.079 715.378 1020.13 703.158C1089.6 681.269 1155.56 649.472 1215.96 608.749C1232.39 597.482 1248.07 585.026 1263.72 572.696C1272.92 565.448 1297.1 546.696 1302.16 537.198L1302.66 537.565C1306.25 537.413 1312.9 530.15 1315.75 527.759L1316.93 528.901L1316.66 529.688C1318.49 528.947 1319.66 527.688 1321.06 526.324C1325.42 522.726 1330.03 519.597 1334.25 515.793L1340.55 510.654C1342.52 509.215 1344.39 507.605 1346.28 506.07L1351.83 503.054Z"/><path fill="#D59612" transform="scale(1.67232 1.67232)" d="M1164.1 684.687C1160.54 691.944 1147.39 693.28 1143.71 701.03C1142.9 702.758 1143.13 703.477 1143.77 705.197C1148.21 706.225 1152.85 701.086 1156.63 699.01C1159.54 697.41 1162.91 696.519 1165.93 694.844C1183.91 684.792 1201.51 674.076 1218.7 662.719C1235.98 651.309 1252.65 638.236 1270.31 627.546L1270.85 627.221C1268.8 632.28 1259.4 635.76 1255.36 639.573L1254.93 641.406L1258.92 639.577C1255.9 643.977 1248.45 648.028 1243.93 651.219C1201.23 681.384 1155.91 706.753 1108.92 729.56C1103.23 732.324 1095.17 737.499 1088.89 738.143C1088.07 738.227 1087.94 738.159 1087.24 738.02C1087.81 735.716 1088.47 735.285 1090.5 734.099C1101.48 727.715 1137.49 714.196 1141.31 703.427C1141.13 702.253 1141.27 701.778 1140.43 700.89C1138.48 706.113 1137.1 707.611 1131.96 710.011C1130.54 710.674 1129.15 711.054 1127.61 711.308C1127.14 709.577 1127.83 709.125 1128.7 707.613C1119.68 712.228 1110.22 719.692 1100.02 720.719L1099.22 720.273C1099.7 719.511 1099.79 718.951 1100.66 718.67C1101.32 718.46 1101.1 718.607 1101.47 718.247C1105 715.704 1109.56 713.442 1113.5 711.601L1116.44 710.949L1116.92 712.204C1133.18 703.792 1148.25 693.743 1164.1 684.687Z"/><path fill="#2E2205" transform="scale(1.67232 1.67232)" d="M1255.36 639.573L1254.93 641.406C1244.6 648.465 1234.58 655.941 1224.16 662.869C1185.62 688.486 1138.95 716.08 1096.25 733.69L1096.36 733.032C1105.85 727.53 1115.96 723.021 1125.71 717.99C1140.36 710.433 1154.83 702.39 1169.26 694.402C1199.08 677.886 1227.42 659.073 1255.36 639.573Z"/><path fill="#8F6710" transform="scale(1.67232 1.67232)" d="M1116.44 710.949L1116.92 712.204C1113.12 714.326 1106.14 719.319 1101.83 718.736L1101.47 718.247C1105 715.704 1109.56 713.442 1113.5 711.601L1116.44 710.949Z"/><path fill="#D59612" transform="scale(1.67232 1.67232)" d="M178.843 203.859C179.963 202.111 181.84 200.778 183.834 200.135C185.708 199.531 187.316 200.111 188.919 201.093C191.756 202.831 192.91 206.875 193.88 209.886L196.339 207.945C196.97 208.2 197.728 208.307 198.093 208.895C197.557 210.144 208.698 264.345 209.549 270.715C210.415 277.199 210.002 284.034 210.721 290.667C210.952 292.805 210.679 294.402 209.358 296.098L207.888 296.099C206.922 294.924 206.464 294.104 206.235 292.576C205.739 289.259 206.893 286.016 206.541 282.709C205.804 275.781 197.348 224.042 195.468 220.521L194.356 220.654C192.883 226.268 197.452 233.268 195.933 239.457L194.777 238.949C193.632 237.135 192.31 235.437 192.191 233.232C192.076 231.113 185.067 210.221 183.654 208.521C183.205 210.609 191.422 237.815 192.775 241.571C193.161 242.643 193.032 242.574 192.745 243.599L191.183 244.045C186.361 241.524 179.494 213.058 177.242 206.589L176.618 206.478L175.876 209.511C175.064 207.92 174.934 207.284 175.108 205.506C176.579 204.299 176.5 204.377 178.404 204.538L178.843 203.859Z"/><path fill="#0E0903" transform="scale(1.67232 1.67232)" d="M196.339 207.945C196.725 216.681 199.889 226.188 201.684 234.785C204.833 249.622 207.22 264.611 208.835 279.693L207.029 278.281C205.936 259.533 199.213 227.998 193.88 209.886L196.339 207.945Z"/><path fill="#0E0903" transform="scale(1.67232 1.67232)" d="M178.843 203.859C185.665 215.262 188.643 231.174 191.551 244.05C187.081 235.429 179.644 214.086 178.404 204.538L178.843 203.859Z"/><path fill="#584007" transform="scale(1.67232 1.67232)" d="M207.029 278.281L208.835 279.693C209.81 284.669 209.136 290.042 208.736 295.063C208.103 289.475 207.534 283.881 207.029 278.281Z"/><path fill="#261506" transform="scale(1.67232 1.67232)" d="M183.124 202.167C183.392 202.358 183.666 202.539 183.928 202.738C189.557 207.024 194.017 228.482 194.846 235.691C190.872 228.266 186.485 211.114 183.124 202.167Z"/><path fill="#D59612" transform="scale(1.67232 1.67232)" d="M896.998 732.803C958.137 725.697 1019.53 709.119 1076.86 686.775C1092.98 680.492 1108.91 673.217 1124.65 666.021C1131.45 662.914 1140.68 656.143 1147.96 655.204L1147.38 655.716C1142.05 660.447 1140 670.89 1133.97 673.816C1126.02 677.67 1118.36 681.08 1110.63 685.408L1119.33 676.158L1118.75 674.78C1119.63 673.978 1120.05 673.171 1120.62 672.147L1124.09 669.846L1122.77 668.83C1114.63 671.259 1106.83 675.485 1099.09 678.971C1089.68 683.209 1080.12 687.133 1070.45 690.735C1018.88 710.084 964.441 725.437 909.741 732.212C902.883 733.062 890.668 737.174 884.209 734.395C888.323 733.497 892.804 733.291 896.998 732.803Z"/><path fill="#7C481A" transform="scale(1.67232 1.67232)" d="M1124.09 669.846L1125.37 668.837C1125.11 671.443 1121.3 674.489 1119.33 676.158L1118.75 674.78C1119.63 673.978 1120.05 673.171 1120.62 672.147L1124.09 669.846Z"/><path fill="#C98914" transform="scale(1.67232 1.67232)" d="M1370.61 525.826C1370.83 530.214 1367.16 534.227 1366.11 538.43C1366.23 538.294 1366.34 538.159 1366.46 538.021C1368.34 535.704 1369.64 533.07 1371.03 530.44C1370.41 538.335 1363.02 549.134 1359.01 555.933C1336.99 593.312 1307.83 635.279 1274.77 663.552C1272.42 665.561 1269.37 668.646 1266.58 669.914C1266.17 667.158 1277.02 659.447 1279.4 657.118C1299.19 638.006 1316.96 616.908 1332.44 594.158C1335.18 590.21 1338.45 586.451 1340.92 582.348C1342 580.566 1342.46 579.886 1341.92 577.811C1340.14 576.667 1339.15 575.771 1338.12 573.9C1338.02 573.734 1337.94 573.565 1337.85 573.398L1338.06 572.266L1337.1 573.085C1337.63 570.345 1338.34 568.81 1340.38 566.877C1341.11 564.867 1342.4 563.26 1343.63 561.538L1344.88 562.044C1354.16 550.418 1361.83 537.778 1370.61 525.826Z"/><path fill="#7C481A" transform="scale(1.67232 1.67232)" d="M1361.48 545.226C1362.35 542.762 1363.88 539.84 1366.11 538.43C1365.76 541.366 1363.45 543.242 1361.48 545.226Z"/><path fill="#584007" transform="scale(1.67232 1.67232)" d="M1343.63 561.538L1344.88 562.044C1343.51 563.687 1342.15 565.668 1340.38 566.877C1341.11 564.867 1342.4 563.26 1343.63 561.538Z"/><path fill="#E4AE15" transform="scale(1.67232 1.67232)" d="M248.25 176.133L251.649 174.775C253.582 175.417 254.533 175.333 255.59 177.129C256.113 187.614 254.585 198.38 253.831 208.857C253.073 219.402 253.05 229.676 253.515 240.224C247.877 233.25 255.475 190.197 253.542 177.8C252.476 178.678 252.344 182.225 252.21 183.636C251.173 194.55 252.103 217.475 245.82 226.256C245.471 231.201 246.805 238.959 245.19 243.374C241.511 224.421 244.528 203.341 244.59 184.051C244.883 182.037 244.503 179.432 245.482 177.618C246.056 176.555 247.147 176.507 248.25 176.133Z"/><path fill="#0E0903" transform="scale(1.67232 1.67232)" d="M248.25 176.133L251.649 174.775L251.557 175.46C249.768 189.291 251.03 203.695 247.46 217.342L247.008 217.264C246.406 209.942 251.826 179.584 248.25 176.133Z"/><path fill="#2E2205" transform="scale(1.67232 1.67232)" d="M1272.08 607.316L1273.96 608.074C1252.79 624.678 1230.99 640.468 1208.62 655.412C1194.07 664.946 1177.25 673.342 1164.1 684.687C1148.25 693.743 1133.18 703.792 1116.92 712.204L1116.44 710.949C1135.68 699.749 1154.15 688.1 1172.88 676.111C1182.71 669.817 1192.89 663.891 1202.33 657.018C1211.49 649.645 1250.13 627.505 1253.41 621.092C1259.08 619.001 1267.92 611.819 1272.08 607.316Z"/><path fill="#C98914" transform="scale(1.67232 1.67232)" d="M187.696 327.197C189.663 321.882 194.927 314.523 199.305 311.059L201.122 310.962C202.291 312.659 202.225 313.701 201.862 315.768C200.378 324.21 194.699 337.249 189.695 344.284L188.322 343.899C186.29 338.761 192.632 332.381 191.17 328.099L190.423 327.965L184.923 336.641C184.704 336.287 184.576 336.123 184.456 335.678C183.838 333.383 184.026 332.354 184.986 330.336C186.111 329.382 186.86 328.391 187.696 327.197Z"/><path fill="#0E0903" transform="scale(1.67232 1.67232)" d="M187.696 327.197C193.097 321.889 196.987 315.263 202.344 309.882C198.904 321.055 194.624 332.414 189.133 342.751C191.222 333.926 194.238 325.658 197.724 317.299L190.423 327.965L184.923 336.641C184.704 336.287 184.576 336.123 184.456 335.678C183.838 333.383 184.026 332.354 184.986 330.336C186.111 329.382 186.86 328.391 187.696 327.197Z"/><path fill="#0E0903" transform="scale(1.67232 1.67232)" d="M1345.86 489.56C1344.36 493.569 1338.9 498.545 1338.54 502.205L1339.87 503C1339.2 505.037 1338.18 506.634 1339.27 508.676C1339.6 509.297 1340.07 509.832 1340.45 510.418C1340.5 510.49 1340.52 510.575 1340.55 510.654L1334.25 515.793C1330.03 519.597 1325.42 522.726 1321.06 526.324C1319.66 527.688 1318.49 528.947 1316.66 529.688L1316.93 528.901L1315.75 527.759C1323.49 520.378 1330.58 507.689 1337.73 498.811C1340.31 495.566 1342.88 492.456 1345.86 489.56Z"/><path fill="#C98914" transform="scale(1.67232 1.67232)" d="M1339.87 503C1339.2 505.037 1338.18 506.634 1339.27 508.676C1339.6 509.297 1340.07 509.832 1340.45 510.418C1340.5 510.49 1340.52 510.575 1340.55 510.654L1334.25 515.793C1330.03 519.597 1325.42 522.726 1321.06 526.324C1321.34 525.196 1321.92 524.036 1322.35 522.95C1325.4 520.106 1327.35 515.597 1330 512.248C1330.64 511.73 1331.39 511.294 1332.08 510.833L1333.23 512.645C1334.89 510.712 1334.32 509.626 1334.91 507.349C1335.5 505.084 1338.02 504.136 1339.87 503Z"/><path fill="#532E12" transform="scale(1.67232 1.67232)" d="M1322.35 522.95C1321.92 524.036 1321.34 525.196 1321.06 526.324C1319.66 527.688 1318.49 528.947 1316.66 529.688L1316.93 528.901C1318.6 526.575 1320.07 524.725 1322.35 522.95Z"/><path fill="#E4AE15" transform="scale(1.67232 1.67232)" d="M1326.42 507.41L1327.27 506.007C1331.49 505.424 1333.89 500.719 1337.73 498.811C1330.58 507.689 1323.49 520.378 1315.75 527.759C1312.9 530.15 1306.25 537.413 1302.66 537.565L1302.16 537.198C1305.6 528.065 1319.59 514.944 1326.42 507.41Z"/><path fill="#2E2205" transform="scale(1.67232 1.67232)" d="M1326.42 507.41C1325.78 512.962 1307.37 532.715 1302.66 537.565L1302.16 537.198C1305.6 528.065 1319.59 514.944 1326.42 507.41Z"/><path fill="#0E0903" transform="scale(1.67232 1.67232)" d="M242.524 185.742C243.235 183.364 243.375 180.683 243.695 178.22C244.53 179.842 244.439 182.244 244.59 184.051C244.528 203.341 241.511 224.421 245.19 243.374C245.8 255.037 250.283 265.42 251.748 276.744L251.347 277.191C241.045 250.13 240.041 214.526 242.524 185.742Z"/><path fill="#2E2205" transform="scale(1.67232 1.67232)" d="M811.129 737.939C822.238 735.495 835.112 736.252 846.576 735.632C863.447 734.581 880.268 732.845 896.998 730.431L896.998 732.803C892.804 733.291 888.323 733.497 884.209 734.395C859.691 736.566 834.97 738.501 810.346 737.831L811.129 737.939Z"/><path fill="#0E0903" transform="scale(1.67232 1.67232)" d="M237.446 232.306L237.897 231.103L239.101 230.61C240.096 244.405 241.792 257.494 244.397 271.099C244.746 272.922 246.048 278.102 245.209 279.49C239.759 264.564 237.94 248.11 237.446 232.306Z"/><path fill="#3E3307" transform="scale(1.67232 1.67232)" d="M1106.7 489.618C1115.91 488.296 1131.9 479.811 1142.04 476.737C1136.71 480.767 1095.28 497.201 1089.42 496.573C1089.26 496.555 1089.09 496.501 1088.93 496.465C1094.67 493.804 1101.18 492.576 1106.7 489.618Z"/><path fill="#9A7914" transform="scale(1.67232 1.67232)" d="M1270.85 627.221C1273.6 624.537 1277.16 623.333 1280.01 620.916C1280.07 623.03 1279.78 623.54 1278.34 625.141C1273.19 630.866 1263.36 633.333 1258.92 639.577L1254.93 641.406L1255.36 639.573C1259.4 635.76 1268.8 632.28 1270.85 627.221Z"/><path fill="#C98914" transform="scale(1.67232 1.67232)" d="M1326.86 555.822L1331.24 552.726L1331.67 553.338L1330.32 556.204C1328.33 559.093 1324.76 563.48 1321.56 564.947L1320.55 564.362C1320.82 562.525 1321.18 561.687 1322.36 560.254C1322.53 560.058 1322.69 559.869 1322.86 559.673C1324.12 558.143 1325.26 557.002 1326.86 555.822Z"/><path fill="#2E2205" transform="scale(1.67232 1.67232)" d="M237.617 200.995C237.788 203.752 237.31 212.601 238.816 214.186L239.107 214.223C239.214 219.684 239.212 225.148 239.101 230.61L237.897 231.103L237.446 232.306C235.553 222.868 237.064 210.634 237.617 200.995Z"/><path fill="#0E0903" transform="scale(1.67232 1.67232)" d="M238.277 182.81L238.838 183.018C238.983 188.246 238.842 193.668 239.378 198.855C239.463 203.979 239.373 209.105 239.107 214.223L238.816 214.186C237.31 212.601 237.788 203.752 237.617 200.995C237.289 195.184 237.182 188.523 238.277 182.81Z"/><path fill="#D59612" transform="scale(1.67232 1.67232)" d="M1326.28 572.948L1327.99 573.088L1328.98 574.864C1326.79 577.872 1324.56 581.843 1320.71 582.761L1320.04 581.851C1320.84 578.346 1323.86 575.485 1326.28 572.948Z"/><path fill="#E5C626" transform="scale(1.67232 1.67232)" d="M262.383 282.191C264.258 287.317 267.19 291.616 270.068 296.207L267.113 297.176C266.296 293.619 262.972 288.386 260.332 285.863C261.643 284.554 262.011 284.005 262.383 282.191Z"/><path fill="#8F6710" transform="scale(1.67232 1.67232)" d="M1272.08 607.316C1274.71 604.467 1277.62 601.478 1281.19 599.849L1282.44 599.92L1281.96 601.153L1281.16 599.78L1281.41 601.809C1278.99 603.97 1276.51 606.059 1273.96 608.074L1272.08 607.316Z"/><path fill="#0E0903" transform="scale(1.67232 1.67232)" d="M260.332 285.863C262.972 288.386 266.296 293.619 267.113 297.176C266.848 297.086 266.565 297.038 266.319 296.906C263.435 295.36 260.796 289.943 259.535 287L260.332 285.863Z"/><path fill="#FEF491" transform="scale(1.67232 1.67232)" d="M275.398 325.617C296.839 340.511 317.268 356.594 335.751 375.084C354.059 393.399 370.588 413.398 388.929 431.698C411.19 453.907 436.723 475.384 462.161 493.911C490.651 514.661 522.897 535.204 555.467 548.788C564.793 552.678 574.411 556.038 584.006 559.2C589.654 561.06 596.013 562.371 601.243 565.135C609.614 568.1 619.458 569.023 628.212 570.615C657.636 575.966 688.309 581.293 718.176 583.308C730.208 582.076 743.805 584.531 755.97 584.863C782.662 585.59 809.846 585.611 836.518 584.493C925.374 580.767 1009.42 566.206 1093.75 537.776C1119.53 529.086 1144.62 518.406 1170.14 509.018L1170.82 510.38C1148.63 517.693 1127.27 528.117 1105.29 536.197C1082.87 544.437 1059.81 550.43 1037.34 558.307C1038.39 559.59 1039.42 560.856 1040.34 562.231C1073.3 553.353 1105.67 540.954 1137.61 529.015C1178.3 513.449 1219.23 498.522 1260.39 484.238L1259.18 486.369C1245.94 490.816 1232.96 496.109 1219.89 501.042L1142.58 530.39C1128.25 535.818 1113.43 542.229 1098.77 546.563L1103.46 548.257L1103.8 549.474C1102.3 551.428 1099.33 552.222 1097.11 553.157C997.647 592.001 870.027 603.422 763.738 599.091C648.166 594.381 546.444 568.735 450.688 501.604C429.156 486.509 407.537 469.777 388.665 451.452C379.673 442.72 372.633 431.91 364.128 422.677L363.105 421.308L364.923 416.158C348.905 395.984 330.586 376.076 311.617 358.659C299.655 347.675 286.181 337.773 275.398 325.617Z"/><path fill="#1E1D1C" transform="scale(1.67232 1.67232)" d="M275.398 325.617C296.839 340.511 317.268 356.594 335.751 375.084C354.059 393.399 370.588 413.398 388.929 431.698C411.19 453.907 436.723 475.384 462.161 493.911C490.651 514.661 522.897 535.204 555.467 548.788C564.793 552.678 574.411 556.038 584.006 559.2C589.654 561.06 596.013 562.371 601.243 565.135C592.022 563.923 582.584 560.721 573.684 558.008C561.204 554.204 548.841 550.173 536.948 544.763C478.259 518.064 408.895 463.294 364.923 416.158C348.905 395.984 330.586 376.076 311.617 358.659C299.655 347.675 286.181 337.773 275.398 325.617Z"/><path fill="#0E0903" transform="scale(1.67232 1.67232)" d="M718.176 583.308C730.208 582.076 743.805 584.531 755.97 584.863C782.662 585.59 809.846 585.611 836.518 584.493C925.374 580.767 1009.42 566.206 1093.75 537.776C1119.53 529.086 1144.62 518.406 1170.14 509.018L1170.82 510.38C1148.63 517.693 1127.27 528.117 1105.29 536.197C1082.87 544.437 1059.81 550.43 1037.34 558.307C1020.79 562.678 1004.24 567.346 987.522 571.028C919.512 586.09 849.823 592.174 780.233 589.125C759.938 588.255 738.081 587.525 718.176 583.308Z"/><path fill="#0E0903" transform="scale(1.67232 1.67232)" d="M1040.34 562.231C1073.3 553.353 1105.67 540.954 1137.61 529.015C1178.3 513.449 1219.23 498.522 1260.39 484.238L1259.18 486.369C1245.94 490.816 1232.96 496.109 1219.89 501.042L1142.58 530.39C1128.25 535.818 1113.43 542.229 1098.77 546.563L1103.46 548.257L1103.8 549.474C1102.3 551.428 1099.33 552.222 1097.11 553.157C1096.97 553.005 1096.86 552.832 1096.71 552.701C1092.78 549.371 1085.07 553.357 1080.37 553.116C1068.99 555.517 999.848 577.46 994.989 575.944C1009.48 570.118 1025.41 566.985 1040.34 562.231Z"/><path fill="#FCF26F" transform="scale(1.67232 1.67232)" d="M1080.37 553.116C1086.06 550.339 1092.75 548.607 1098.77 546.563L1103.46 548.257L1103.8 549.474C1102.3 551.428 1099.33 552.222 1097.11 553.157C1096.97 553.005 1096.86 552.832 1096.71 552.701C1092.78 549.371 1085.07 553.357 1080.37 553.116Z"/><path fill="#0E0903" transform="scale(1.67232 1.67232)" d="M213.756 346.325C214.2 346.925 215.177 347.918 215.42 348.574C218.107 355.842 215.81 378.112 215.83 386.948C215.853 397.307 216.428 407.738 218.239 417.953C221.178 434.536 224.86 451.3 229.035 467.611C231.482 477.175 234.589 486.77 236.684 496.392C236.905 497.408 236.909 498.369 236.749 499.392C236.721 499.567 236.679 499.74 236.647 499.914L236.498 500.778C241.935 520.538 253.591 541.527 265.155 558.4L267.73 557.956C270.912 560.704 275.077 564.235 277.497 567.661C274.524 566.965 271.496 563.595 269.735 561.188C269.681 566.092 293.648 591.712 298.249 596.421C328.188 627.062 357.557 653.59 393.017 677.869C396.374 680.168 427.05 698.867 427.461 700.494C426.49 700.649 425.102 701.074 424.153 701.023C416.719 700.629 365.898 666.405 358.386 660.958C349.166 654.207 340.211 647.1 331.541 639.656C326.63 635.456 321.913 630.648 316.613 626.963C314.074 628.716 311.978 631.772 309.407 633.139C309.118 633.725 308.576 634.532 308.458 635.156C312.524 635.762 315.219 639.198 318.637 641.222C320.026 641.064 320.353 641.269 321.656 641.835L322.102 643.393L320.767 644.18C314.562 644.278 300.076 634.566 294.318 631.089C287.107 626.735 256.119 605.512 254.77 597.718C254.262 594.785 254.584 593.732 256.253 591.474C253.112 589.493 250.332 586.616 247.786 583.92C243.841 579.741 234.362 570.408 234.515 564.713C235.047 563.752 235.939 562.431 236.238 561.366C237.261 557.719 209.659 532.029 206.815 524.289C205.852 521.67 210.122 520.526 211.477 517.732C211.125 513.868 200.057 502.352 197.144 498.496C194.236 494.647 183.223 480.461 183.798 476.432L185.282 476.047C193.196 480.604 195.669 493.278 203.592 498.003L204.814 497.609C205.755 495.959 206.485 494.571 206.812 492.682C206.837 492.536 206.857 492.389 206.88 492.243C202.194 484.35 196.261 477.634 192.393 469.182C193.441 466.708 197.131 466.773 198.634 463.888C199.637 457.614 190.351 450.929 188.518 444.765C188.001 443.024 187.903 442.167 188.694 440.583C190.566 441.173 191.232 442.465 192.309 444.025C193.438 442.739 195.4 441.828 195.255 439.88C194.674 432.074 181.666 413.705 183.865 407.369C184.771 407.135 184.769 406.957 185.701 407.439C187.892 408.573 194.489 424.924 195.602 428.041L195.776 428.542C196.393 428.349 196.461 428.352 197.127 428C198.811 427.108 200.856 425.637 201.438 423.882C200.584 422.657 199.796 421.415 199.129 420.078C196.467 414.745 187.298 386.085 188.923 381.179L189.741 381.46C190.861 381.24 190.345 381.138 191.291 381.75C193.502 388.792 195.625 395.937 198.251 402.834C199.897 407.155 206.125 417.027 205.823 420.927C206.909 423.164 208.181 425.42 208.885 427.81L209.107 427.862L209.699 427.301L209.287 422.422C207.556 411.775 207.923 401.334 204.378 390.957L205.459 388.838L205.967 389.095C206.242 388.968 206.637 388.975 206.792 388.715C207.809 387.011 206.022 367.609 210.018 360.218L211.856 352.075L213.756 346.325Z"/><path fill="#D59612" transform="scale(1.67232 1.67232)" d="M318.637 641.222C320.026 641.064 320.353 641.269 321.656 641.835L322.102 643.393L320.767 644.18C314.562 644.278 300.076 634.566 294.318 631.089C287.107 626.735 256.119 605.512 254.77 597.718C254.262 594.785 254.584 593.732 256.253 591.474C253.112 589.493 250.332 586.616 247.786 583.92C243.841 579.741 234.362 570.408 234.515 564.713C235.047 563.752 235.939 562.431 236.238 561.366C237.261 557.719 209.659 532.029 206.815 524.289C205.852 521.67 210.122 520.526 211.477 517.732C211.125 513.868 200.057 502.352 197.144 498.496C194.236 494.647 183.223 480.461 183.798 476.432L185.282 476.047C193.196 480.604 195.669 493.278 203.592 498.003L204.814 497.609C205.755 495.959 206.485 494.571 206.812 492.682C206.837 492.536 206.857 492.389 206.88 492.243L209.526 492.542C215.426 498.719 228.692 519.99 229.685 527.896L229.319 529.008C221.032 523.28 199.006 495.691 192.476 486.651L192.028 488.313C197.707 497.21 204.315 505.327 211.2 513.312C219.434 522.862 227.099 529.663 231.441 541.793C231.427 544.744 232.466 545.812 234.379 547.874C234.075 549.354 234.025 549.576 232.993 550.665C235.944 553.534 251.16 568.53 253.673 568.855L253.408 567.887L254.276 566.209C259.949 574.187 267.071 579.924 274.509 586.182L273.616 586.781C273.796 586.846 273.975 586.913 274.156 586.976C275.863 587.575 276.957 587.769 278.757 587.635C288.992 593.923 296.681 605.87 305.506 614.145C330.219 637.317 355.914 658.501 384.435 676.881C391.984 681.746 399.908 687.067 407.977 690.989L409.602 690.453C361.283 662.275 295.989 604.431 265.155 558.4L267.73 557.956C270.912 560.704 275.077 564.235 277.497 567.661C274.524 566.965 271.496 563.595 269.735 561.188C269.681 566.092 293.648 591.712 298.249 596.421C328.188 627.062 357.557 653.59 393.017 677.869C396.374 680.168 427.05 698.867 427.461 700.494C426.49 700.649 425.102 701.074 424.153 701.023C416.719 700.629 365.898 666.405 358.386 660.958C349.166 654.207 340.211 647.1 331.541 639.656C326.63 635.456 321.913 630.648 316.613 626.963C314.074 628.716 311.978 631.772 309.407 633.139C309.118 633.725 308.576 634.532 308.458 635.156C312.524 635.762 315.219 639.198 318.637 641.222Z"/><path fill="#0E0903" transform="scale(1.67232 1.67232)" d="M272.927 595.009C268.579 590.641 265.535 584.367 261.117 579.683C256.265 574.539 250.58 569.981 245.338 565.224C235.655 556.438 226.447 547.351 218.305 537.099C216.071 534.285 213.275 531.197 211.845 527.897C219.467 534.75 225.664 543.404 232.993 550.665C235.944 553.534 251.16 568.53 253.673 568.855L253.408 567.887L254.276 566.209C259.949 574.187 267.071 579.924 274.509 586.182L273.616 586.781C271.989 585.851 270.88 584.752 268.984 585.154C268.893 588.271 271.516 592.206 272.927 595.009Z"/><path fill="#2E2205" transform="scale(1.67232 1.67232)" d="M305.259 635.482C296.41 630.663 264.948 611.945 261.938 603.436C267.401 606.494 272.544 612.424 277.705 616.227C286.785 622.918 296.708 628.809 306.216 634.887L305.259 635.482Z"/><path fill="#9A7914" transform="scale(1.67232 1.67232)" d="M308.458 635.156C312.524 635.762 315.219 639.198 318.637 641.222C317.692 641.777 317.322 641.736 316.254 641.77C314.561 641.029 313.092 640.493 311.853 639.082L308.458 635.156Z"/><path fill="#7C481A" transform="scale(1.67232 1.67232)" d="M409.602 690.453C411.641 691.618 414.392 692.738 415.665 694.757C412.812 694.302 410.405 692.479 407.977 690.989L409.602 690.453Z"/><path fill="#7C481A" transform="scale(1.67232 1.67232)" d="M192.028 488.313C190.526 486.263 189.061 484.4 188.284 481.94C190.09 482.655 191.313 485.08 192.476 486.651L192.028 488.313Z"/><path fill="#7C481A" transform="scale(1.67232 1.67232)" d="M306.216 634.887L308.458 635.156L311.853 639.082C309.567 638.061 307.425 636.734 305.259 635.482L306.216 634.887Z"/><path fill="#261506" transform="scale(1.67232 1.67232)" d="M238.007 569.193C243.847 572.727 252.355 585.081 259.02 590.23C272.736 600.826 287.941 607.972 302.222 617.482C281.283 612.384 249.687 587.313 238.007 569.193Z"/><path fill="#D59612" transform="scale(1.67232 1.67232)" d="M192.309 444.025C193.438 442.739 195.4 441.828 195.255 439.88C194.674 432.074 181.666 413.705 183.865 407.369C184.771 407.135 184.769 406.957 185.701 407.439C187.892 408.573 194.489 424.924 195.602 428.041L195.776 428.542C196.393 428.349 196.461 428.352 197.127 428C198.811 427.108 200.856 425.637 201.438 423.882C200.584 422.657 199.796 421.415 199.129 420.078C196.467 414.745 187.298 386.085 188.923 381.179L189.741 381.46C190.861 381.24 190.345 381.138 191.291 381.75C193.502 388.792 195.625 395.937 198.251 402.834C199.897 407.155 206.125 417.027 205.823 420.927C206.909 423.164 208.181 425.42 208.885 427.81C208.802 428.962 209.037 429.549 209.514 430.591C209.316 432.259 208.903 433.767 208.426 435.374C213.189 445.374 215.814 455.122 218.421 465.853C205.177 452.466 196.031 433.046 188.513 415.985L188.219 416.447C192.046 431.863 200.088 449.335 210.23 461.664C213.2 465.275 218.155 468.2 220.374 472.225C223.307 477.545 224.064 483.853 226.329 489.455L224.57 490.988C222.567 486.885 219.432 484.374 217.913 479.645L215.984 479.3C211.24 477.45 206.668 469.898 204.012 465.738L203.247 464.786C199.953 458.484 196.637 450.833 191.429 445.903L190.217 444.804L192.309 444.025Z"/><path fill="#0E0903" transform="scale(1.67232 1.67232)" d="M190.655 385.948C193.715 394.715 199.071 415.227 205.823 420.927C206.909 423.164 208.181 425.42 208.885 427.81C208.802 428.962 209.037 429.549 209.514 430.591C209.316 432.259 208.903 433.767 208.426 435.374C200.03 419.181 194.203 403.886 190.655 385.948Z"/><path fill="#584007" transform="scale(1.67232 1.67232)" d="M204.712 463.901L204.541 462.712C209.059 467.398 215.143 473.793 217.913 479.645L215.984 479.3C211.24 477.45 206.668 469.898 204.012 465.738L204.712 463.901Z"/><path fill="#C98914" transform="scale(1.67232 1.67232)" d="M204.712 463.901C208.261 469.094 212.753 473.974 215.984 479.3C211.24 477.45 206.668 469.898 204.012 465.738L204.712 463.901Z"/><path fill="#7C481A" transform="scale(1.67232 1.67232)" d="M207.172 442.237C210.276 443.763 211.618 447.499 212.969 450.451C209.947 448.979 208.572 445.091 207.172 442.237Z"/><path fill="#FEF491" transform="scale(1.67232 1.67232)" d="M213.756 346.325C214.2 346.925 215.177 347.918 215.42 348.574C218.107 355.842 215.81 378.112 215.83 386.948C215.853 397.307 216.428 407.738 218.239 417.953C221.178 434.536 224.86 451.3 229.035 467.611C231.482 477.175 234.589 486.77 236.684 496.392C236.905 497.408 236.909 498.369 236.749 499.392C236.721 499.567 236.679 499.74 236.647 499.914L236.498 500.778C224.493 476.64 218.161 447.929 213.067 421.594C211.866 421.2 210.478 422.016 209.287 422.422C207.556 411.775 207.923 401.334 204.378 390.957L205.459 388.838L205.967 389.095C206.242 388.968 206.637 388.975 206.792 388.715C207.809 387.011 206.022 367.609 210.018 360.218L211.856 352.075L213.756 346.325Z"/><path fill="#0E0903" transform="scale(1.67232 1.67232)" d="M210.018 360.218C208.811 380.971 209.875 401.038 213.067 421.594C211.866 421.2 210.478 422.016 209.287 422.422C207.556 411.775 207.923 401.334 204.378 390.957L205.459 388.838L205.967 389.095C206.242 388.968 206.637 388.975 206.792 388.715C207.809 387.011 206.022 367.609 210.018 360.218Z"/><path fill="#261506" transform="scale(1.67232 1.67232)" d="M206.88 492.243C202.194 484.35 196.261 477.634 192.393 469.182C193.441 466.708 197.131 466.773 198.634 463.888C199.637 457.614 190.351 450.929 188.518 444.765C188.001 443.024 187.903 442.167 188.694 440.583C190.566 441.173 191.232 442.465 192.309 444.025L190.217 444.804L191.429 445.903C196.637 450.833 199.953 458.484 203.247 464.786L204.012 465.738C206.668 469.898 211.24 477.45 215.984 479.3L217.913 479.645C219.432 484.374 222.567 486.885 224.57 490.988L226.329 489.455C228.322 494.991 233.18 503.606 233.92 508.882L233.016 512.433C230.313 509.766 227.761 506.916 224.191 505.435L224.241 505.769C221.604 504.475 219.889 502.065 218.051 499.853C222.157 509.112 226.513 518.259 231.114 527.284L229.685 527.896C228.692 519.99 215.426 498.719 209.526 492.542L206.88 492.243Z"/><path fill="#D59612" transform="scale(1.67232 1.67232)" d="M206.88 492.243C202.194 484.35 196.261 477.634 192.393 469.182C193.441 466.708 197.131 466.773 198.634 463.888C199.637 457.614 190.351 450.929 188.518 444.765C188.001 443.024 187.903 442.167 188.694 440.583C190.566 441.173 191.232 442.465 192.309 444.025L190.217 444.804L191.429 445.903C196.637 450.833 199.953 458.484 203.247 464.786L202.351 465.915C206.97 475.154 209.393 485.229 213.764 494.535C209.35 488.903 202.807 478.298 197.228 474.197L197.523 475.183L197.431 474.196L197.802 474.473C197.922 479.229 206.302 488.871 209.526 492.542L206.88 492.243Z"/><path fill="#584007" transform="scale(1.67232 1.67232)" d="M191.429 445.903C196.637 450.833 199.953 458.484 203.247 464.786L202.351 465.915C199.114 459.019 194.251 452.996 191.429 445.903Z"/><path fill="#C98914" transform="scale(1.67232 1.67232)" d="M208.985 474.985C212.195 478.584 215.538 482.146 217.855 486.409C219.445 489.333 220.524 492.705 222.388 495.44L223.152 494.011L221.902 491.514L222.369 490.689L224.57 490.988L226.329 489.455C228.322 494.991 233.18 503.606 233.92 508.882C218.941 493.901 214.685 498.884 208.985 474.985Z"/><path fill="#C98914" transform="scale(1.67232 1.67232)" d="M229.168 532.278C236.432 537.99 257.206 555.264 261.733 561.748C267.213 569.595 269.958 578.347 276.455 585.707L276.161 586.424L274.509 586.182C267.071 579.924 259.949 574.187 254.276 566.209L253.408 567.887L253.673 568.855C251.16 568.53 235.944 553.534 232.993 550.665C234.025 549.576 234.075 549.354 234.379 547.874C232.466 545.812 231.427 544.744 231.441 541.793C231.841 538.438 230.325 535.356 229.168 532.278Z"/><path fill="#44270E" transform="scale(1.67232 1.67232)" d="M253.408 567.887C249.347 562.05 246.328 555.267 243.676 548.69C245.566 549.529 252.861 563.69 254.276 566.209L253.408 567.887Z"/><path fill="#C98914" transform="scale(1.67232 1.67232)" d="M218.051 499.853C219.889 502.065 221.604 504.475 224.241 505.769L224.191 505.435C227.761 506.916 230.313 509.766 233.016 512.433C241.31 521.081 244.723 536.118 250.143 546.838C243.374 541.809 233.987 535.499 231.114 527.284C226.513 518.259 222.157 509.112 218.051 499.853Z"/><path fill="#E4AE15" transform="scale(1.67232 1.67232)" d="M313.447 484.313C314.726 484.96 315.923 485.654 317.112 486.456C325.363 492.018 333.042 499.168 340.843 505.388C345.814 509.352 352.598 513.425 356.75 518.182C357.722 519.295 358.118 520.464 358.388 521.89C378.986 540.053 400.931 557.186 422.929 573.627C432.348 580.667 447.458 589.612 455.344 597.522C456.03 597.661 499.062 625.34 505.54 629.279C532.199 645.488 561.149 657.922 589.969 669.713C609.586 677.739 629.97 683.907 650.213 690.12C661.613 693.619 673.422 697.773 685.065 700.254C698.104 703.032 711.336 705.506 724.479 707.749C730.386 708.757 736.484 709.037 742.286 710.555C749.267 712.381 758.136 711.96 765.452 712.559L765.613 712.942C728.19 717.377 692.838 713.637 655.848 707.982C648.937 706.926 639.498 706.769 633.183 703.978C633.09 703.936 632.995 703.897 632.901 703.857C603.732 698.274 538.031 675.383 515.903 657.661C511.342 656.341 507.118 653.5 503.206 650.86C499.337 648.249 494.394 644.853 493.483 640.114C477.499 629.755 462.44 618.402 447.245 606.945C425.185 590.313 403.854 573.571 383.254 555.141C378.267 551.16 373.292 546.546 368.946 541.872C348.591 526.819 331.088 502.819 313.447 484.313Z"/><path fill="#0E0903" transform="scale(1.67232 1.67232)" d="M383.975 553.73C451.95 614.376 522.819 661.8 610.976 687.989C627.079 692.642 643.325 696.782 659.69 700.403C666.294 701.865 687.776 704.939 692.168 707.221C683.465 707.666 670.046 704.468 661.16 702.793C601.687 691.583 546.022 669.793 493.483 640.114C477.499 629.755 462.44 618.402 447.245 606.945C425.185 590.313 403.854 573.571 383.254 555.141L383.975 553.73Z"/><path fill="#0E0903" transform="scale(1.67232 1.67232)" d="M515.903 657.661C520.173 657.92 548.985 673.326 554.927 676.059C570.507 683.225 587.441 689.873 603.807 695.053C613.25 698.041 623.979 699.656 632.901 703.857C603.732 698.274 538.031 675.383 515.903 657.661Z"/><path fill="#0E0903" transform="scale(1.67232 1.67232)" d="M351.336 516.577L358.388 521.89C378.986 540.053 400.931 557.186 422.929 573.627C432.348 580.667 447.458 589.612 455.344 597.522C448.751 594.992 441.812 588.937 435.98 584.827C416.379 571.045 397.298 556.537 378.778 541.333C369.464 533.702 360.751 524.767 350.96 517.793L351.336 516.577Z"/><path fill="#3E3307" transform="scale(1.67232 1.67232)" d="M368.946 541.872C374.457 544.681 379.343 549.633 383.975 553.73L383.254 555.141C378.267 551.16 373.292 546.546 368.946 541.872Z"/><path fill="#D59612" transform="scale(1.67232 1.67232)" d="M343.829 509.584C346.482 511.78 348.905 514.139 351.336 516.577L350.96 517.793C347.509 516.443 345.66 512.566 343.829 509.584Z"/><path fill="#0E0903" transform="scale(1.67232 1.67232)" d="M757.65 808.936C681.186 808.826 609.659 799.914 537.47 773.289C526.478 769.235 508.542 763.448 499.804 755.99C586.418 792.444 663.855 805.74 757.428 807.264L757.65 808.936Z"/><path fill="#0E0903" transform="scale(1.67232 1.67232)" d="M824.818 790.174C810.824 791.348 797.019 794.144 782.955 794.983C712.571 799.18 636.394 792.475 569.641 768.947L569.657 768.35C576.49 769.426 583.214 771.646 589.897 773.429C601.087 776.414 612.504 779.36 623.878 781.537C676.353 791.582 775.868 799.165 827.241 787.968L824.818 790.174Z"/><path fill="#E4AE15" transform="scale(1.67232 1.67232)" d="M1251.66 528.079C1251.95 528.313 1252.01 528.736 1252.15 529.079C1251.7 529.731 1251.38 530.024 1250.67 530.391C1237.56 537.226 1225.57 545.849 1212.89 553.425C1184.39 570.452 1154.5 586.007 1123.07 596.876L1122.69 596.787L1123.06 596.073C1130.92 593.195 1138.5 588.575 1145.92 584.657C1166.18 573.961 1185.8 562.241 1205.81 551.102C1220.73 542.793 1236.67 536.322 1251.66 528.079Z"/><path fill="#0E0903" transform="scale(1.67232 1.67232)" d="M789.635 782.63C783.365 781.986 776.465 782.81 770.139 782.983C760.232 783.188 750.324 783.289 740.415 783.285C703.153 783.395 644.322 779.325 609.392 767.913C617.182 767.388 626.968 771.245 634.906 772.51C646.887 774.418 658.936 775.609 671.004 776.782C711.859 780.46 752.889 781.844 793.899 780.928C792.479 781.497 791.062 782.077 789.635 782.63Z"/><path fill="#E4AE15" transform="scale(1.67232 1.67232)" d="M342.852 582.034C349.821 585.104 363.382 598.725 369.895 604.089C378.076 610.827 415.793 638.408 419.678 643.635C419.13 643.489 418.884 643.444 418.385 643.245C409.47 639.695 347.008 591.025 342.852 582.034Z"/><path fill="#2E2205" transform="scale(1.67232 1.67232)" d="M1144.6 488.677L1145.22 489.789C1121.48 499.182 1097.49 507.932 1073.28 516.028C1063.1 519.365 1039.9 525.12 1031.76 529.2L1029.98 528.205C1068.69 516.681 1106.63 502.406 1144.6 488.677Z"/><path fill="#2E2205" transform="scale(1.67232 1.67232)" d="M1111.79 734.423C1130.44 725.634 1149.22 716.941 1167.37 707.145C1180.16 700.238 1192.66 691.765 1205.85 685.807C1201.65 689.369 1196.51 692.275 1191.85 695.246C1166.89 711.148 1139.97 723.047 1113.19 735.414L1111.79 734.423Z"/><path fill="#0E0903" transform="scale(1.67232 1.67232)" d="M528.315 525.347C536.924 524.934 545.924 525.894 554.604 525.917C572.238 525.965 590.086 525.333 607.688 526.244C594.32 529.216 540.108 530.443 528.315 525.347Z"/><path fill="#0E0903" transform="scale(1.67232 1.67232)" d="M364.128 422.677C360.99 421.806 309.151 375.667 302.407 369.259C310.076 371.103 354.84 413.105 363.105 421.308L364.128 422.677Z"/><path fill="#2E2205" transform="scale(1.67232 1.67232)" d="M686.343 717.923C662.534 715.97 609.728 707.428 589.615 697.216C596.118 697.226 614.771 704.116 622.561 705.922C643.345 710.739 665.464 714.791 686.721 716.619L686.343 717.923Z"/><path fill="#0E0903" transform="scale(1.67232 1.67232)" d="M587.06 512.732L591.751 512.761C582.124 517.215 544.248 517.295 532.782 517.027C530.908 516.962 529.223 516.618 527.398 516.203L527.736 515.614C536.438 514.53 545.426 514.751 554.189 514.461C565.153 514.03 576.111 513.453 587.06 512.732Z"/><path fill="#2E2205" transform="scale(1.67232 1.67232)" d="M967.485 729.168C948.718 735.502 928.768 739.037 909.154 741.644C902.8 742.488 896.253 742.771 889.96 743.792L885.266 742.953C902.962 741.081 920.801 738.351 938.278 735.024C947.996 733.174 957.702 730.537 967.485 729.168Z"/><path fill="#0E0903" transform="scale(1.67232 1.67232)" d="M1310.78 485.05L1310.19 487.011C1300.42 491.516 1257.94 511.894 1250.3 512.699C1257.73 507.432 1266.86 504.187 1275.19 500.566L1310.78 485.05Z"/><path fill="#3E3307" transform="scale(1.67232 1.67232)" d="M624.924 544.337C628.671 542.723 634.729 543.414 638.594 544.618C637.358 545.466 635.587 545.421 634.137 545.185C623.128 546.042 575.452 548.355 568.721 545.169C576.356 544.231 584.327 544.774 592.028 544.8C602.996 544.888 613.964 544.734 624.924 544.337Z"/><path fill="#E4AE15" transform="scale(1.67232 1.67232)" d="M624.924 544.337C628.671 542.723 634.729 543.414 638.594 544.618C637.358 545.466 635.587 545.421 634.137 545.185C631.288 544.03 627.952 544.339 624.924 544.337Z"/><path fill="#0E0903" transform="scale(1.67232 1.67232)" d="M1343.92 481.605L1344.38 482.28C1344.28 482.941 1344.26 483.22 1344.08 483.823C1340.57 495.393 1317.08 511.052 1306.55 516.811L1306.11 516.292C1309.47 511.82 1317.37 507.647 1321.93 504.064C1330.48 497.347 1337.37 490.278 1343.92 481.605Z"/><path fill="#0E0903" transform="scale(1.67232 1.67232)" d="M1124.61 489.115L1125.19 489.246L1124.89 489.944C1107.24 498.607 1087.21 505.108 1068.16 509.998L1066.57 509.78C1073.32 506.563 1080.83 504.587 1087.91 502.136L1124.61 489.115Z"/><path fill="#0E0903" transform="scale(1.67232 1.67232)" d="M211.856 352.075C211.815 351.818 211.768 351.563 211.734 351.306C210.475 342.001 220.908 306.398 226.535 298.848C221.643 313.947 216.324 330.665 213.756 346.325L211.856 352.075Z"/><path fill="#3E3307" transform="scale(1.67232 1.67232)" d="M648.175 553.298C649.918 553.139 654.606 552.643 655.954 553.688C640.049 556.188 622.439 556.409 606.396 555.567C603.219 555.271 599.842 555.222 596.85 554.055C613.635 552.193 631.189 554.631 648.175 553.298Z"/><path fill="#3E3307" transform="scale(1.67232 1.67232)" d="M881.594 758.089C901.192 752.663 921.967 750.887 941.787 745.965L942.788 747.242C937.826 747.977 932.701 749.658 927.774 750.741C912.593 754.076 897.157 757.398 881.594 758.089Z"/><path fill="#E4AE15" transform="scale(1.67232 1.67232)" d="M889.96 743.792C885.869 744.92 879.576 744.606 876.041 746.087C874.821 746.598 873.714 748.384 872.453 748.851C868.621 750.268 858.714 750.737 854.062 751.541C853.773 751.416 853.485 751.286 853.193 751.167C853.165 751.155 853.134 751.154 853.105 751.147C857.442 749.697 861.816 749.966 866.177 748.886C867.21 748.63 867.291 748.804 867.837 747.878C864.568 746.643 860.6 746.794 857.129 746.617C861.397 746.911 864.454 745.321 868.547 744.661C874.081 743.754 879.664 743.183 885.266 742.953L889.96 743.792Z"/><path fill="#2E2205" transform="scale(1.67232 1.67232)" d="M560.072 535.141C575.943 533.009 601.949 535.359 618.563 536.002C598.74 536.117 579.963 537.731 560.072 535.141Z"/><path fill="#2E2205" transform="scale(1.67232 1.67232)" d="M289.73 376.069C297.769 380.793 324.37 402.668 329.725 410.17C321.462 404.955 295.365 383.408 289.73 376.069Z"/><path fill="#0E0903" transform="scale(1.67232 1.67232)" d="M281.792 386.064C288.496 388.411 311.123 412.403 318.867 418.814C310.164 416.492 288.856 393.109 281.792 386.064Z"/><path fill="#8F6710" transform="scale(1.67232 1.67232)" d="M763.939 807.243C774.556 806.537 785.41 806.871 796.033 807.436C790.741 808.452 785.067 809.518 779.677 808.704C772.336 808.851 764.993 808.928 757.65 808.936L757.428 807.264L763.939 807.243Z"/><path fill="#3E3307" transform="scale(1.67232 1.67232)" d="M757.428 807.264L763.939 807.243C769.029 807.667 774.772 807.407 779.677 808.704C772.336 808.851 764.993 808.928 757.65 808.936L757.428 807.264Z"/><path fill="#8F6710" transform="scale(1.67232 1.67232)" d="M941.787 745.965L942.439 745.838C949.803 744.332 957.061 741.695 964.298 739.642C968.454 738.462 972.718 737.855 976.845 736.565C966.041 741.532 954.469 744.952 942.788 747.242L941.787 745.965Z"/><path fill="#2E2205" transform="scale(1.67232 1.67232)" d="M1326.36 491.665L1326.93 492.997C1319.22 498.672 1309.14 506.567 1300.15 509.663C1301.77 506.473 1322.01 494.259 1326.36 491.665Z"/><path fill="#C98914" transform="scale(1.67232 1.67232)" d="M231.737 225.454C231.739 220.961 230.245 202.398 232.001 199.621L233.332 200.427C235.679 204.401 233.592 214.197 233.25 218.924L231.737 225.454Z"/><path fill="#0E0903" transform="scale(1.67232 1.67232)" d="M201.429 365.852C202.796 373.367 204.82 381.254 205.459 388.838L204.378 390.957C202.097 383.553 201.102 375.666 199.811 368.033L201.429 365.852Z"/><path fill="#8F6710" transform="scale(1.67232 1.67232)" d="M1325.7 486.128L1326.3 486.506C1323.56 491.046 1303.11 498.28 1297.8 500.274L1297.16 499.921C1301.53 496.795 1319.17 489.42 1325.7 486.128Z"/><path fill="#0E0903" transform="scale(1.67232 1.67232)" d="M296.791 417.307C289.093 411.432 282.402 403.922 275.815 396.867C275.492 395.512 275.34 395.703 274.27 394.944L274.278 394.929L275.301 396.136L275.898 396.012C283.541 402.336 290.703 409.701 298.094 416.38L296.791 417.307Z"/><path fill="#9A7914" transform="scale(1.67232 1.67232)" d="M636.42 560.757C640.478 560.088 670.285 560.331 675.203 560.799C665.994 563.768 645.728 563.014 636.42 560.757Z"/><path fill="#9A7914" transform="scale(1.67232 1.67232)" d="M793.899 780.928C800.732 778.231 812.108 780.182 819.311 780.655C809.933 781.587 799.007 783.285 789.635 782.63C791.062 782.077 792.479 781.497 793.899 780.928Z"/><path fill="#3E3307" transform="scale(1.67232 1.67232)" d="M1170.14 509.018C1176.86 506.366 1183.6 503.401 1190.65 501.795C1189.31 503.892 1174 509.153 1170.82 510.38L1170.14 509.018Z"/><path fill="#9A7914" transform="scale(1.67232 1.67232)" d="M1005.45 536.09C1013.67 533.582 1021.73 530.62 1029.98 528.205L1031.76 529.2C1023.42 531.719 1014.12 535.363 1005.45 536.09Z"/><path fill="#584007" transform="scale(1.67232 1.67232)" d="M1260.39 484.238C1265.85 482.282 1271.44 479.884 1277.22 479.114C1272.82 482.479 1264.48 484.558 1259.18 486.369L1260.39 484.238Z"/><path fill="#3E3307" transform="scale(1.67232 1.67232)" d="M233.25 218.924C233.47 227.505 233.673 235.37 231.799 243.814L231.737 225.454L233.25 218.924Z"/><path fill="#584007" transform="scale(1.67232 1.67232)" d="M1113.19 735.414C1108.19 737.732 1102.97 740.025 1097.56 741.159C1102.11 738.505 1106.96 736.506 1111.79 734.423L1113.19 735.414Z"/><path fill="#0E0903" transform="scale(1.67232 1.67232)" d="M254.729 287.618C257.803 289.546 259.006 294.97 260.267 298.326C258.626 297.286 257.281 296.126 256.123 294.548C254.481 292.31 254.334 290.279 254.729 287.618Z"/><path fill="#9A7914" transform="scale(1.67232 1.67232)" d="M277.353 410.297C280.915 414.092 284.633 417.769 287.316 422.263C283.35 419.522 280.02 415.215 276.797 411.638L277.353 410.297Z"/><path fill="#7C481A" transform="scale(1.67232 1.67232)" d="M827.241 787.968C830.436 787.547 833.757 786.889 836.981 787.174C833.429 789.092 828.777 789.507 824.818 790.174L827.241 787.968Z"/><path fill="#584007" transform="scale(1.67232 1.67232)" d="M1326.36 491.665C1329.23 489.949 1332.08 487.489 1335.48 487.568C1332.87 489.609 1329.76 491.285 1326.93 492.997L1326.36 491.665Z"/><path fill="#3E3307" transform="scale(1.67232 1.67232)" d="M199.811 368.033C199.344 364.886 198.493 361.552 199.292 358.427C200.843 360.148 201.012 363.599 201.429 365.852L199.811 368.033Z"/><path fill="#E4AE15" transform="scale(1.67232 1.67232)" d="M1310.78 485.05C1312.51 483.832 1313.93 482.923 1315.99 482.393L1316.6 482.987C1315.32 485.126 1312.39 485.995 1310.19 487.011L1310.78 485.05Z"/><path fill="#9A7914" transform="scale(1.67232 1.67232)" d="M1144.6 488.677C1147.74 487.537 1151.18 485.928 1154.53 485.91L1154.42 486.125L1152.49 486.117L1154.18 485.832C1152.01 487.937 1148.07 488.815 1145.22 489.789L1144.6 488.677Z"/><path fill="#3E3307" transform="scale(1.67232 1.67232)" d="M298.094 416.38C300.305 418.147 303.389 420.015 304.651 422.585C301.664 421.469 299.261 419.266 296.791 417.307L298.094 416.38Z"/><path fill="#E5C626" transform="scale(1.67232 1.67232)" d="M696.692 717.95C700.225 717.901 704.215 717.494 707.602 718.586C705.626 720.03 699.47 719.128 697.009 718.808C696.918 718.796 696.829 718.776 696.74 718.761L696.692 717.95Z"/><path fill="#584007" transform="scale(1.67232 1.67232)" d="M686.721 716.619C690.02 717.018 693.444 717.267 696.692 717.95L696.74 718.761C693.271 718.716 689.794 718.269 686.343 717.923L686.721 716.619Z"/><path fill="#E5C626" transform="scale(1.67232 1.67232)" d="M283.55 370.77C286.108 371.634 288.12 372.875 289.394 375.359C289.513 375.592 289.618 375.833 289.73 376.069C287.216 375.732 285.794 373.711 284.276 371.738C284.03 371.419 283.787 371.096 283.55 370.77Z"/><path fill="#E5C626" transform="scale(1.67232 1.67232)" d="M346.516 543.656C350.132 544.617 352.524 547.597 355.037 550.176C351.153 549.013 349.11 546.587 346.516 543.656Z"/><path fill="#0E0903" transform="scale(1.67232 1.67232)" d="M248.218 290.743C248.971 290.985 249.014 290.951 249.763 291.443C251.687 292.707 252.214 295.962 252.733 298.043C249.974 296.539 249.167 293.507 248.218 290.743Z"/><path fill="#E5C626" transform="scale(1.67232 1.67232)" d="M276.797 411.638C275.213 410.33 273.853 409.474 273.375 407.401C275.199 407.551 276.096 409.025 277.353 410.297L276.797 411.638Z"/><path fill="#7C481A" transform="scale(1.67232 1.67232)" d="M1356.87 483.976C1353.04 475.279 1354.93 470.203 1353.82 461.426C1353.39 458.056 1351.66 454.534 1350.52 451.325C1367.84 467.274 1379.86 482.354 1381.69 506.928L1382.11 507.873C1381.5 510.789 1381.79 513.696 1380 516.214L1378.98 516.363C1376.64 513.148 1376.97 508.547 1375.13 504.925C1373.64 505.214 1373.68 510.661 1371.64 512.001L1370.83 511.261C1370.87 510.532 1370.86 509.705 1371.01 508.986C1371.28 507.707 1371.77 506.626 1371.68 505.28C1371.4 500.73 1368.56 482.177 1366.91 477.93C1366.29 476.328 1366.18 475.304 1366.41 473.605C1364.28 472.101 1364 471.529 1362.87 469.144C1362.62 472.428 1364.24 476.557 1362.9 479.515L1361.64 478.413L1360.54 480.148L1361.74 480.757C1367.92 489.129 1366.57 496.645 1365.57 506.323C1363.91 503.223 1362.13 500.163 1360.99 496.826C1360.79 496.785 1360.59 496.747 1360.39 496.703C1355.79 495.686 1354.59 493.244 1352.23 489.492L1356.87 483.976Z"/><path fill="#44270E" transform="scale(1.67232 1.67232)" d="M1366.41 473.605C1370.8 482.486 1372.57 493.319 1377.47 501.683L1377.16 499.406C1378.6 501.754 1379.54 503.825 1380.39 506.452L1381.69 506.928L1382.11 507.873C1381.5 510.789 1381.79 513.696 1380 516.214L1378.98 516.363C1376.64 513.148 1376.97 508.547 1375.13 504.925C1373.64 505.214 1373.68 510.661 1371.64 512.001L1370.83 511.261C1370.87 510.532 1370.86 509.705 1371.01 508.986C1371.28 507.707 1371.77 506.626 1371.68 505.28C1371.4 500.73 1368.56 482.177 1366.91 477.93C1366.29 476.328 1366.18 475.304 1366.41 473.605Z"/><path fill="#532E12" transform="scale(1.67232 1.67232)" d="M1361.74 480.757C1367.92 489.129 1366.57 496.645 1365.57 506.323C1363.91 503.223 1362.13 500.163 1360.99 496.826L1362.43 495.704L1362.31 494.648L1359.67 494.441C1362.57 491.109 1361.92 484.872 1361.74 480.757Z"/><path fill="#532E12" transform="scale(1.67232 1.67232)" d="M1356.87 483.976C1358.86 487.051 1359.32 490.86 1359.67 494.441L1362.31 494.648L1362.43 495.704L1360.99 496.826C1360.79 496.785 1360.59 496.747 1360.39 496.703C1355.79 495.686 1354.59 493.244 1352.23 489.492L1356.87 483.976Z"/><path fill="#44270E" transform="scale(1.67232 1.67232)" d="M160.071 169.624L159.023 166.176L159.726 165.557C163.035 167.588 165.966 173.746 166.926 177.47C167.323 179.008 167.451 180.655 167.535 182.239C166.881 186.221 167.166 189.913 168.211 193.812L167.644 195.174C167.62 196.167 168.047 197.105 168.353 198.045C169.39 198.327 170.378 198.604 171.377 199.006C169.769 200.192 169.509 200.746 167.461 200.613C164.494 198.037 162.943 194.245 162.236 190.464C162.012 183.021 158.644 177.228 160.071 169.624Z"/><path fill="#532E12" transform="scale(1.67232 1.67232)" d="M160.071 169.624L159.023 166.176L159.726 165.557C163.035 167.588 165.966 173.746 166.926 177.47C167.323 179.008 167.451 180.655 167.535 182.239C165.938 183.084 165.858 182.98 164.064 182.636C160.395 179.784 160.745 173.896 160.071 169.624Z"/><path fill="#532E12" transform="scale(1.67232 1.67232)" d="M162.236 190.464L163.638 189.297C165.318 189.823 165.68 190.402 166.46 192.022C166.942 193.022 167.284 194.124 167.644 195.174C167.62 196.167 168.047 197.105 168.353 198.045C169.39 198.327 170.378 198.604 171.377 199.006C169.769 200.192 169.509 200.746 167.461 200.613C164.494 198.037 162.943 194.245 162.236 190.464Z"/><path fill="#532E12" transform="scale(1.67232 1.67232)" d="M161.921 162.926C159.233 158.73 155.09 154.273 154.816 149.141L155.567 148.643C156.938 149.16 157.662 150.225 158.635 151.286C161.309 153.294 165.576 156.486 166.012 159.99C166.123 160.882 166.146 161.782 166.166 162.679C170.441 165.051 173.699 172.463 176.458 176.574C176.179 178.131 175.444 178.844 174.417 179.959C174.324 179.764 174.233 179.569 174.137 179.376C171.056 173.127 165.824 168.596 161.921 162.926Z"/><path fill="#44270E" transform="scale(1.67232 1.67232)" d="M158.635 151.286C161.309 153.294 165.576 156.486 166.012 159.99C166.123 160.882 166.146 161.782 166.166 162.679C164.859 162.99 164.326 163.264 163.027 162.842C161.723 158.96 160.032 155.15 158.635 151.286Z"/><path fill="#693916" transform="scale(1.67232 1.67232)" d="M167.868 157.301C168.383 157.512 168.597 157.567 169.086 157.955C173.326 161.322 179.453 168.295 180.554 173.606L180.006 173.862C179.433 172.761 178.9 171.594 178.15 170.601C178.054 170.474 177.945 170.357 177.842 170.236C177.318 169.344 176.994 169.018 176.23 168.365C175.762 170.144 176.807 171.345 177.61 172.941L177.344 173.513C177.217 173.41 177.087 173.31 176.963 173.203C173.373 170.098 168.281 162.132 167.868 157.301Z"/></svg>